<svg width="38" height="38" viewBox="0 0 38 38" fill="none" xmlns="http://www.w3.org/2000/svg">
<rect width="38" height="38" fill="#EF5252"/>
<g clip-path="url(#clip0_0_1)">
<path d="M19.5525 19.0007L23.8856 14.6676C24.0381 14.515 24.0381 14.2677 23.8856 14.1152C23.733 13.9626 23.4857 13.9626 23.3332 14.1152L19 18.4483L14.6669 14.1152C14.5143 13.9626 14.267 13.9626 14.1144 14.1152C13.9619 14.2677 13.9619 14.5151 14.1144 14.6676L18.4476 19.0007L14.1144 23.3339C13.9619 23.4864 13.9619 23.7338 14.1144 23.8863C14.1907 23.9626 14.2907 24.0007 14.3906 24.0007C14.4906 24.0007 14.5906 23.9626 14.6669 23.8863L19 19.5532L23.3331 23.8863C23.4094 23.9626 23.5094 24.0007 23.6094 24.0007C23.7093 24.0007 23.8093 23.9626 23.8856 23.8863C24.0381 23.7338 24.0381 23.4864 23.8856 23.3339L19.5525 19.0007Z" fill="white"/>
</g>
<defs>
<clipPath id="clip0_0_1">
<rect width="10" height="10" fill="white" transform="translate(14 14)"/>
</clipPath>
</defs>
</svg>
