<svg width="10" height="12" viewBox="0 0 10 12" fill="none" xmlns="http://www.w3.org/2000/svg">
<path d="M5.75372 7.48125C7.82304 7.48125 9.49434 5.80645 9.49434 3.74063C9.49434 1.67803 7.81631 0 5.75372 0H1.98809C1.79393 0 1.63652 0.157406 1.63652 0.351562V5.27187H0.858398C0.664242 5.27187 0.506836 5.42927 0.506836 5.62343V7.12969C0.506836 7.32384 0.664242 7.48125 0.858398 7.48125H1.63652V8.28438H0.858398C0.664242 8.28438 0.506836 8.44179 0.506836 8.63595V10.1422C0.506836 10.3364 0.664242 10.4938 0.858398 10.4938H1.63652V11.6484C1.63652 11.8426 1.79393 12 1.98809 12H3.49434C3.6885 12 3.84591 11.8426 3.84591 11.6484V10.4937H6.13027C6.32442 10.4937 6.48183 10.3363 6.48183 10.1422V8.63592C6.48183 8.44177 6.32442 8.28436 6.13027 8.28436H3.84588V7.48125H5.75372ZM3.84588 2.20938H5.7537C6.59801 2.20938 7.28494 2.89631 7.28494 3.74063C7.28494 4.58494 6.59801 5.27187 5.7537 5.27187H3.84588V2.20938Z" fill="#9F9F9F"/>
</svg>
