<svg width="40" height="28" viewBox="0 0 40 28" fill="none" xmlns="http://www.w3.org/2000/svg">
<path d="M30.21 17.7815C27.4298 17.7815 25.168 20.0433 25.168 22.8235C25.168 25.6038 27.4298 27.8656 30.21 27.8656C32.9907 27.8656 35.252 25.6038 35.252 22.8235C35.252 20.0433 32.9902 17.7815 30.21 17.7815ZM30.21 25.3445C28.8197 25.3445 27.689 24.2138 27.689 22.8235C27.689 21.4332 28.8197 20.3025 30.21 20.3025C31.6003 20.3025 32.731 21.4332 32.731 22.8235C32.731 24.2139 31.6003 25.3445 30.21 25.3445Z" fill="#29ABE2"/>
<path d="M12.9825 17.7815C10.2022 17.7815 7.94043 20.0433 7.94043 22.8235C7.94043 25.6038 10.2022 27.8656 12.9825 27.8656C15.7627 27.8656 18.0245 25.6038 18.0245 22.8235C18.0245 20.0433 15.7627 17.7815 12.9825 17.7815ZM12.9825 25.3445C11.5921 25.3445 10.4614 24.2138 10.4614 22.8235C10.4614 21.4332 11.5921 20.3025 12.9825 20.3025C14.3724 20.3025 15.5035 21.4332 15.5035 22.8235C15.5035 24.2139 14.3728 25.3445 12.9825 25.3445Z" fill="#29ABE2"/>
<path d="M33.606 3.34966C33.3917 2.92403 32.956 2.65552 32.4795 2.65552H25.8408V5.17654H31.7021L35.1345 12.0034L37.3875 10.8706L33.606 3.34966Z" fill="#29ABE2"/>
<path d="M26.4284 21.6052H16.8906V24.1262H26.4284V21.6052Z" fill="#29ABE2"/>
<path d="M9.20144 21.6052H4.83176C4.13551 21.6052 3.57129 22.1695 3.57129 22.8657C3.57129 23.5619 4.13559 24.1262 4.83176 24.1262H9.20152C9.89777 24.1262 10.462 23.5619 10.462 22.8657C10.462 22.1694 9.8977 21.6052 9.20144 21.6052Z" fill="#29ABE2"/>
<path d="M39.7351 13.8992L37.2557 10.7059C37.0175 10.3983 36.6499 10.2185 36.2603 10.2185H27.1007V1.39499C27.1007 0.69874 26.5364 0.134521 25.8402 0.134521H4.83176C4.13551 0.134521 3.57129 0.698818 3.57129 1.39499C3.57129 2.09116 4.13559 2.65546 4.83176 2.65546H24.5796V11.479C24.5796 12.1752 25.1439 12.7394 25.8401 12.7394H35.6431L37.4788 15.1041V21.605H33.9914C33.2951 21.605 32.7309 22.1693 32.7309 22.8655C32.7309 23.5617 33.2952 24.1259 33.9914 24.1259H38.7393C39.4355 24.1259 39.9997 23.5616 39.9998 22.8655V14.6723C39.9998 14.3925 39.9065 14.1202 39.7351 13.8992Z" fill="#29ABE2"/>
<path d="M9.1184 15.2185H3.32004C2.62379 15.2185 2.05957 15.7828 2.05957 16.479C2.05957 17.1752 2.62387 17.7394 3.32004 17.7394H9.11832C9.81457 17.7394 10.3788 17.1751 10.3788 16.479C10.3789 15.7828 9.81457 15.2185 9.1184 15.2185Z" fill="#29ABE2"/>
<path d="M12.0168 10.2605H1.26047C0.564297 10.2605 0 10.8248 0 11.521C0 12.2173 0.564297 12.7815 1.26047 12.7815H12.0168C12.713 12.7815 13.2773 12.2172 13.2773 11.521C13.2773 10.8249 12.713 10.2605 12.0168 10.2605Z" fill="#29ABE2"/>
<path d="M14.0764 5.30249H3.32004C2.62379 5.30249 2.05957 5.86679 2.05957 6.56296C2.05957 7.25921 2.62387 7.82343 3.32004 7.82343H14.0764C14.7726 7.82343 15.3368 7.25913 15.3368 6.56296C15.3369 5.86679 14.7726 5.30249 14.0764 5.30249Z" fill="#29ABE2"/>
</svg>
