<svg width="44" height="50" viewBox="0 0 44 50" fill="none" xmlns="http://www.w3.org/2000/svg">
<path d="M43.8186 24.3447L37.9593 12.626C37.6756 12.1281 37.2773 11.8164 36.6487 11.8164H7.35184C6.73934 11.8164 6.32977 12.1203 6.0413 12.626L0.18192 24.3447C-0.0893692 24.9209 0.00350163 25.4999 0.387974 25.9619L20.8958 49.4971C21.1741 49.8164 21.5765 50 22.0003 50C22.4241 50 22.8265 49.8164 23.1048 49.4971L43.6126 25.9619C43.9946 25.5022 44.0916 24.9239 43.8186 24.3447ZM34.2786 14.7461L30.5393 22.2246L24.93 14.7461H34.2786ZM27.8597 23.5352H16.1409L22.0003 15.7227L27.8597 23.5352ZM19.0706 14.7461L13.4612 22.2246L9.72196 14.7461H19.0706ZM7.35184 16.5566L10.8411 23.5352H3.86258L7.35184 16.5566ZM4.71219 26.4648H12.2434L19.4651 43.3965L4.71219 26.4648ZM22.0003 41.8721L15.429 26.4648H28.5716L22.0003 41.8721ZM24.5354 43.3965L31.7571 26.4648H39.2884L24.5354 43.3965ZM33.1595 23.5352L36.6487 16.5566L40.138 23.5352H33.1595Z" fill="white"/>
<path d="M22 0C21.191 0 20.5352 0.655859 20.5352 1.46484V4.49219C20.5352 5.30117 21.191 5.95703 22 5.95703C22.809 5.95703 23.4648 5.30117 23.4648 4.49219V1.46484C23.4648 0.655859 22.809 0 22 0Z" fill="white"/>
<path d="M15.7851 6.45962L13.7135 4.38804C13.1416 3.81597 12.214 3.81597 11.6419 4.38804C11.0699 4.96011 11.0699 5.88755 11.6419 6.45962L13.7135 8.5312C14.2855 9.10327 15.2131 9.10337 15.7851 8.5312C16.3572 7.95913 16.3572 7.03169 15.7851 6.45962Z" fill="white"/>
<path d="M32.3584 4.38804C31.7864 3.81597 30.8588 3.81597 30.2868 4.38804L28.2152 6.45962C27.6431 7.03169 27.6431 7.95913 28.2152 8.5312C28.7872 9.10327 29.7148 9.10337 30.2868 8.5312L32.3584 6.45962C32.9304 5.88755 32.9304 4.96011 32.3584 4.38804Z" fill="white"/>
</svg>

