<svg width="50" height="48" viewBox="0 0 50 48" fill="none" xmlns="http://www.w3.org/2000/svg">
<path d="M49.4324 22.0872L29.0818 1.60252C29.0558 1.57615 29.0287 1.55056 29.0012 1.52576C26.779 -0.469457 23.4211 -0.476586 21.1904 1.50925C21.1627 1.53396 21.1357 1.55945 21.1095 1.58562L0.573426 22.0813C-0.19005 22.8433 -0.19132 24.08 0.570692 24.8434C1.3328 25.607 2.56942 25.6081 3.3328 24.8462L4.8828 23.2992V40.1629C4.8828 44.4707 8.38749 47.9754 12.6953 47.9754H37.3047C41.6125 47.9754 45.1172 44.4707 45.1172 40.1629C45.1172 39.0842 44.2428 38.2097 43.1641 38.2097C42.0853 38.2097 41.2109 39.0842 41.2109 40.1629C41.2109 42.3168 39.4586 44.0691 37.3047 44.0691H12.6953C10.5414 44.0691 8.78905 42.3168 8.78905 40.1629V19.4597C8.78905 19.4407 8.78681 19.4222 8.78622 19.4034L23.8228 4.39636C24.5546 3.77498 25.6278 3.77732 26.3567 4.40173L41.2109 19.354V30.3972C41.2109 31.476 42.0853 32.3504 43.1641 32.3504C44.2428 32.3504 45.1172 31.476 45.1172 30.3972V23.2859L46.6613 24.8403C47.0431 25.2246 47.5448 25.4169 48.0469 25.4169C48.5446 25.4169 49.0425 25.2277 49.4234 24.8493C50.1887 24.089 50.1928 22.8524 49.4324 22.0872Z" fill="white"/>
<path d="M13.5287 40.4934C13.8696 40.7321 14.2602 40.8467 14.647 40.8467C15.2627 40.8467 15.8687 40.5564 16.2487 40.0137C16.2643 39.9914 17.1911 38.6709 18.343 37.178C19.2434 37.688 20.8055 38.3076 23.2818 38.3076C25.873 38.3076 28.278 37.2107 30.4297 35.0475C35.818 29.6304 35.8631 20.6087 35.8382 19.2576C35.8385 19.2509 35.8388 19.2444 35.839 19.2377C35.8754 18.1621 35.0349 17.2597 33.9595 17.2198C33.5475 17.2048 23.7964 16.911 18.0806 22.6575C15.8523 24.8977 14.7305 27.3146 14.7464 29.8411C14.7574 31.5972 15.3224 33.0523 15.8167 34.0672C14.3668 35.8946 13.1254 37.6635 13.0485 37.7733C12.43 38.6569 12.6449 39.8747 13.5287 40.4934ZM20.8501 25.4122C24.0147 22.2305 29.1014 21.4015 31.8688 21.1905C31.6654 23.969 30.8482 29.0876 27.6601 32.2926C25.7802 34.1827 24.2609 34.4012 23.2817 34.4012C22.2377 34.4012 21.4877 34.2538 20.9551 34.075C22.896 32.0701 25.988 29.6081 26.0196 29.583C26.8641 28.912 27.0051 27.6834 26.3342 26.8388C25.6633 25.9941 24.4347 25.8531 23.5902 26.524C23.4656 26.6229 20.828 28.7228 18.7551 30.7493C18.693 30.4513 18.6547 30.1395 18.6526 29.8164C18.6434 28.3691 19.3829 26.8873 20.8501 25.4122Z" fill="white"/>
</svg>
