<svg width="16" height="33" viewBox="0 0 16 33" fill="none" xmlns="http://www.w3.org/2000/svg">
<path d="M8.00169 30.7706L5.00878 27.7778C4.92657 27.6954 4.81665 27.6501 4.69945 27.6501C4.58218 27.6501 4.47232 27.6954 4.38998 27.7778L4.12787 28.0401C4.0454 28.1224 4 28.2323 4 28.3496C4 28.4668 4.0454 28.5766 4.12787 28.659L7.69119 32.2223C7.77379 32.305 7.88416 32.3503 8.0015 32.3499C8.11935 32.3503 8.22959 32.3051 8.31226 32.2223L11.8721 28.6623C11.9546 28.5799 12 28.4701 12 28.3528C12 28.2356 11.9546 28.1257 11.8721 28.0433L11.61 27.7812C11.4394 27.6106 11.1617 27.6106 10.9912 27.7812L8.00169 30.7706Z" fill="#29ABE2"/>
<path d="M1.42187 7.05945C1.42187 3.44295 4.36483 0.5 7.98132 0.5C11.5978 0.5 14.5408 3.44295 14.5408 7.05945V16.9406C14.5408 20.5571 11.5978 23.5 7.98132 23.5C4.36483 23.5 1.42187 20.5571 1.42187 16.9406V7.05945ZM7.98132 23.0601C11.356 23.0601 14.1008 20.3152 14.1008 16.9406V7.05945C14.1008 3.6848 11.356 0.939942 7.98132 0.939942C4.60667 0.939942 1.86182 3.6848 1.86182 7.05945V16.9406C1.86182 20.3152 4.60667 23.0601 7.98132 23.0601Z" fill="#29ABE2" stroke="#29ABE2"/>
<path d="M7.76172 5.49426C7.76172 5.3727 7.86013 5.27429 7.98169 5.27429C8.10325 5.27429 8.20166 5.3727 8.20166 5.49426V8.80811C8.20166 8.92949 8.10307 9.02808 7.98169 9.02808C7.86021 9.02808 7.76172 8.92957 7.76172 8.80811V5.49426Z" fill="#29ABE2" stroke="#29ABE2"/>
</svg>
