<svg width="44" height="50" viewBox="0 0 44 50" fill="none" xmlns="http://www.w3.org/2000/svg">
<path d="M43.239 13.5653L43.2374 13.5264C43.2157 13.0461 43.2012 12.538 43.1924 11.9727C43.1516 9.21578 40.9601 6.93536 38.2028 6.78125C32.4541 6.46043 28.0069 4.5859 24.2071 0.882219L24.1747 0.85132C22.9353 -0.285075 21.0657 -0.285075 19.8259 0.85132L19.7935 0.882219C15.9937 4.5859 11.5465 6.46043 5.7978 6.78163C3.04093 6.93536 0.849011 9.21578 0.808194 11.973C0.799802 12.5346 0.784925 13.0427 0.763181 13.5264L0.760892 13.6168C0.649122 19.4788 0.510267 26.7744 2.9509 33.3963C4.29291 37.0378 6.32538 40.2032 8.99146 42.8052C12.028 45.7685 16.0051 48.121 20.8124 49.7972C20.9688 49.8517 21.1313 49.896 21.2969 49.9292C21.5303 49.9757 21.7653 49.999 22.0003 49.999C22.2353 49.999 22.4707 49.9757 22.7037 49.9292C22.8693 49.896 23.0329 49.8513 23.1901 49.7964C27.9917 48.1172 31.9646 45.7635 34.9985 42.8007C37.6634 40.1979 39.6959 37.0317 41.039 33.3895C43.4888 26.7477 43.3503 19.4384 43.239 13.5653ZM38.2863 32.3744C35.7122 39.3537 30.4575 44.1469 22.2219 47.027C22.1926 47.0369 22.1613 47.0456 22.1289 47.0521C22.0438 47.0689 21.9572 47.0689 21.871 47.0518C21.8389 47.0453 21.8077 47.0369 21.7787 47.027C13.5344 44.1522 8.27621 39.3617 5.70396 32.382C3.45444 26.2781 3.58185 19.581 3.69439 13.6729L3.69515 13.6401C3.71804 13.1323 3.7333 12.6006 3.74169 12.0161C3.76 10.792 4.73503 9.77921 5.96145 9.71093C9.21462 9.52935 12.0726 8.90069 14.6986 7.78909C17.3212 6.67902 19.6505 5.11423 21.8187 3.00547C21.929 2.91239 22.072 2.91201 22.1819 3.00547C24.3505 5.11423 26.6798 6.67902 29.302 7.78909C31.928 8.90069 34.786 9.52935 38.0395 9.71093C39.266 9.77921 40.241 10.792 40.2589 12.0165C40.2677 12.604 40.283 13.1358 40.3058 13.6401C40.418 19.5551 40.5424 26.2575 38.2863 32.3744Z" fill="white"/>
<path d="M21.9998 12.54C15.1287 12.54 9.53906 18.1301 9.53906 25.0007C9.53906 31.8718 15.1287 37.4618 21.9998 37.4618C28.8704 37.4618 34.4605 31.8718 34.4605 25.0007C34.4605 18.1301 28.8704 12.54 21.9998 12.54ZM21.9998 34.5276C16.7466 34.5276 12.4729 30.254 12.4729 25.0007C12.4729 19.7475 16.7466 15.4739 21.9998 15.4739C27.2526 15.4739 31.5262 19.7475 31.5262 25.0007C31.5262 30.254 27.2526 34.5276 21.9998 34.5276Z" fill="white"/>
<path d="M25.5806 21.1323L19.7929 26.9199L18.222 25.349C17.6491 24.7761 16.7202 24.7761 16.1472 25.349C15.5746 25.922 15.5746 26.8509 16.1472 27.4235L18.7557 30.032C19.0422 30.3185 19.4176 30.4615 19.7929 30.4615C20.1683 30.4615 20.5437 30.3185 20.8301 30.032L27.6554 23.2067C28.228 22.6337 28.228 21.7049 27.6554 21.1323C27.0824 20.5589 26.1535 20.5589 25.5806 21.1323Z" fill="white"/>
</svg>

